<svg xmlns="http://www.w3.org/2000/svg" xmlns:xlink="http://www.w3.org/1999/xlink" width="50" height="50" viewBox="0 0 50 50"><defs><path id="4l3va" d="M569.22 2277.3l-2.65.01c-1.7 0-1.48 1.19-1.48 4.11l4.11-.05-.67 4.12h-3.45v14.4h-5.14v-14.4h-3.1v-4.1s3.11.02 3.11 0c.17-2.2-.99-8.22 4.1-8.22h5.17zm-28.22 8.2a22.5 22.5 0 1 0 45 0 22.5 22.5 0 0 0-45 0z"/><mask id="4l3vc" width="2" height="2" x="-1" y="-1"><path fill="#fff" d="M541 2263h45v45h-45z"/><use xlink:href="#4l3va"/></mask><filter id="4l3vb" width="67" height="68" x="530" y="2253" filterUnits="userSpaceOnUse"><feOffset dy="1" in="SourceGraphic" result="FeOffset1023Out"/><feGaussianBlur in="FeOffset1023Out" result="FeGaussianBlur1024Out" stdDeviation="0.4 0.4"/></filter></defs><g><g transform="translate(-538 -2261)"><g filter="url(#4l3vb)"><use fill="none" stroke-opacity=".25" stroke-width="0" mask="url(&quot;#4l3vc&quot;)" xlink:href="#4l3va"/><use fill-opacity=".25" xlink:href="#4l3va"/></g><use fill="#fff" xlink:href="#4l3va"/></g></g></svg>