<svg xmlns="http://www.w3.org/2000/svg" xmlns:xlink="http://www.w3.org/1999/xlink" width="50" height="50" viewBox="0 0 50 50"><defs><path id="7jzga" d="M740.24 2288.58c-1.33.04-6.5.23-6.47 4.06 0 .34.12 4.02 5.92 4.12 5.4-.2 4.93-3.5 5.02-3.64-.04-2.5-3.32-4.4-4.47-4.54zm-.8-5.37c4.48 0 3.33-5.02 3.33-5.02s-1.08-4.86-4.24-4.52c-4.05.05-2.92 5.1-2.92 5.1s.94 4.28 3.83 4.44zm-.26.86c-.64.05-.8.03-1.08.05a5.36 5.36 0 0 1-5.53-5.32c-.04-2.24 1.18-3.6 2.09-4.52 1.05-.9 2.62-1.8 6.06-1.8h6.96l-2.17 1.2h-2.1c.26.17 2.31 1.48 2.44 4.52 0 3.98-3.79 4.43-3.79 6.49 0 1.13 1.25 1.58 2.1 2.36 1.94 1.4 2.63 2.99 2.63 4.7 0 3.19-2.92 6.37-8.7 6.42.02.04-7.19.14-7.42-4.84 0 .03-.33-2.23 2.76-4.12 1.91-1.27 4.44-1.38 6.42-1.58-.7-.8-1-1.41-1-2.27.01-.47.1-.79.33-1.3zm13.29-11.76h2.12v3.17h3.17v2.11h-3.17v3.18h-2.12v-3.18h-3.17v-2.11h3.17zm-30.5 13.14a22.5 22.5 0 1 0 45 0 22.5 22.5 0 0 0-45 0z"/><mask id="7jzgc" width="2" height="2" x="-1" y="-1"><path fill="#fff" d="M721 2262h46v46h-46z"/><use xlink:href="#7jzga"/></mask><filter id="7jzgb" width="68" height="69" x="710" y="2252" filterUnits="userSpaceOnUse"><feOffset dy="1" in="SourceGraphic" result="FeOffset1083Out"/><feGaussianBlur in="FeOffset1083Out" result="FeGaussianBlur1084Out" stdDeviation="0.4 0.4"/></filter></defs><g><g transform="translate(-719 -2261)"><g filter="url(#7jzgb)"><use fill="none" stroke-opacity=".25" stroke-width="0" mask="url(&quot;#7jzgc&quot;)" xlink:href="#7jzga"/><use fill-opacity=".25" xlink:href="#7jzga"/></g><use fill="#fff" xlink:href="#7jzga"/></g></g></svg>