<svg xmlns="http://www.w3.org/2000/svg" xmlns:xlink="http://www.w3.org/1999/xlink" width="50" height="50" viewBox="0 0 50 50"><defs><path id="zslha" d="M674.87 2274.72a2.62 2.62 0 1 1 0 5.25 2.62 2.62 0 0 1 0-5.25zm-2.3 6.9h5.08V2297h-5.09zm13.61-.09v2.28c.49-.73 1.43-2.53 4.55-2.56 5.72 0 5.7 6.21 5.7 7.67l-.07 8.05-5.06-.01s.02-7.41 0-8.5c.03-.36-.01-2.87-2.34-2.87-3.15 0-2.78 3.15-2.78 3.15v8.19h-5.15v-15.4zm5.12 6.93c0-.2 0-.18 0 0 0 .04 0 .05 0 0zm-29.26-2.89a22.5 22.5 0 1 0 45 0 22.5 22.5 0 0 0-45 0z"/><mask id="zslhc" width="2" height="2" x="-1" y="-1"><path fill="#fff" d="M662 2263h46v46h-46z"/><use xlink:href="#zslha"/></mask><filter id="zslhb" width="68" height="69" x="651" y="2253" filterUnits="userSpaceOnUse"><feOffset dy="1" in="SourceGraphic" result="FeOffset1063Out"/><feGaussianBlur in="FeOffset1063Out" result="FeGaussianBlur1064Out" stdDeviation="0.4 0.4"/></filter></defs><g><g transform="translate(-660 -2262)"><g filter="url(#zslhb)"><use fill="none" stroke-opacity=".25" stroke-width="0" mask="url(&quot;#zslhc&quot;)" xlink:href="#zslha"/><use fill-opacity=".25" xlink:href="#zslha"/></g><use fill="#fff" xlink:href="#zslha"/></g></g></svg>