<svg xmlns="http://www.w3.org/2000/svg" xmlns:xlink="http://www.w3.org/1999/xlink" width="50" height="50" viewBox="0 0 50 50"><defs><path id="5a0ba" d="M802.59 2274.96h3.4v6.02H811v4.01h-5l-.01 6.27c0 3.05 2.13 3.66 6 1.88v4c-2.12.69-4.75 1.07-6.87.76-1.71-.25-4.12-1.27-4.12-3.91v-9.02h-2.99v-3.96c3.46-1.7 4.4-3.27 4.58-6.05zm-20.6 10.54a22.5 22.5 0 1 0 45 0 22.5 22.5 0 0 0-45 0z"/><mask id="5a0bc" width="2" height="2" x="-1" y="-1"><path fill="#fff" d="M782 2263h45v45h-45z"/><use xlink:href="#5a0ba"/></mask><filter id="5a0bb" width="67" height="68" x="771" y="2253" filterUnits="userSpaceOnUse"><feOffset dy="1" in="SourceGraphic" result="FeOffset1103Out"/><feGaussianBlur in="FeOffset1103Out" result="FeGaussianBlur1104Out" stdDeviation="0.4 0.4"/></filter></defs><g><g transform="translate(-779 -2261)"><g filter="url(#5a0bb)"><use fill="none" stroke-opacity=".25" stroke-width="0" mask="url(&quot;#5a0bc&quot;)" xlink:href="#5a0ba"/><use fill-opacity=".25" xlink:href="#5a0ba"/></g><use fill="#fff" xlink:href="#5a0ba"/></g></g></svg>