<svg xmlns="http://www.w3.org/2000/svg" xmlns:xlink="http://www.w3.org/1999/xlink" width="20" height="17" viewBox="0 0 20 17"><defs><path id="kakna" d="M1501.73 40.66l-2.48 5.5a.82.82 0 0 1-.7.49l-7.12.47.4 1.18h7.77a1.65 1.65 0 1 1-1.65 1.65h-7.7a1.65 1.65 0 1 1-1.65-1.65h1.5l-3.19-9.08h-1.89a.83.83 0 0 1 0-1.65h2.48c.36 0 .66.24.78.56l.48 1.37h12.21a.82.82 0 0 1 .76 1.16zm-12.4.49l1.53 4.36 7.1-.48 1.74-3.88z"/></defs><g><g transform="translate(-1483 -36)"><use fill="#fff" xlink:href="#kakna"/></g></g></svg>