<svg xmlns="http://www.w3.org/2000/svg" xmlns:xlink="http://www.w3.org/1999/xlink" width="99" height="87" viewBox="0 0 100 100"><defs><path id="7mr1a" d="M29.9 149V64h94.2v85zm65.13-5.01a8.38 8.38 0 0 0 6.5-3.67l17.55-29.67a7.96 7.96 0 0 0 0-7.33l-17.54-29.67A8.38 8.38 0 0 0 95.03 70h-35.1a8.38 8.38 0 0 0-6.5 3.66l-17.55 29.67a7.96 7.96 0 0 0 0 7.33l17.54 29.67a8.38 8.38 0 0 0 6.51 3.67z"/><path id="7mr1b" d="M59.93 143.99a8.38 8.38 0 0 1-6.5-3.67l-17.55-29.67a7.96 7.96 0 0 1 0-7.33l17.54-29.67A8.38 8.38 0 0 1 59.93 70h35.1a8.38 8.38 0 0 1 6.5 3.66l17.55 29.67a7.96 7.96 0 0 1 0 7.33l-17.54 29.67a8.38 8.38 0 0 1-6.51 3.67z"/><path id="7mr1e" d="M86.6 99c-.9-4.3-4.58-6.71-8.76-6.71-4.34 0-7.3 2.09-7.3 5.16 0 3.68 4.9 4.9 9.92 6.43 5.58 1.76 12.55 4.45 12.55 11.65 0 6.65-5.86 11.49-14.55 11.49-8.31 0-13.77-4.73-15.45-11.43l.04-.02A3.02 3.02 0 0 1 66 112a3 3 0 0 1 2.83 2.02l.1-.03c.72 4.01 4.12 7.59 9.75 7.59 4.96 0 7.86-2.53 7.86-5.83 0-4.78-6.02-5.77-11.54-7.58-4.57-1.54-10.76-3.68-10.76-10.39 0-5.99 5.85-10.77 13.88-10.77 7.25 0 12.94 4.23 14.39 10.39l-.25.06a3 3 0 0 1-5.39 1.46z"/><linearGradient id="7mr1c" x1="119.98" x2="34.98" y1="76.99" y2="136.99" gradientUnits="userSpaceOnUse"><stop offset="0" stop-color="#f8f8f8" stop-opacity=".2"/><stop offset="1" stop-color="#f8f8f8" stop-opacity="0"/></linearGradient><clipPath id="7mr1d"><use fill="#fff" xlink:href="#7mr1a"/></clipPath></defs><g><g transform="translate(-28 -63)"><g><use fill="#e2574c" xlink:href="#7mr1b"/><use fill="url(#7mr1c)" xlink:href="#7mr1b"/><use fill="#fff" fill-opacity="0" stroke="#fff" stroke-linecap="round" stroke-linejoin="round" stroke-miterlimit="50" stroke-width="10" clip-path="url(&quot;#7mr1d&quot;)" xlink:href="#7mr1b"/></g><g><use fill="#fff" xlink:href="#7mr1e"/></g></g></g></svg>