<svg xmlns="http://www.w3.org/2000/svg" xmlns:xlink="http://www.w3.org/1999/xlink" width="40" height="35" viewBox="0 0 40 35"><defs><path id="w2lka" d="M30.34 698v-32h35.32v32zm24.26-2c.9 0 2-.63 2.45-1.4l6.6-11.22c.45-.76.45-2 0-2.77l-6.6-11.23A3.15 3.15 0 0 0 54.6 668H41.39c-.9 0-2 .62-2.45 1.38l-6.61 11.23a3.03 3.03 0 0 0 0 2.77l6.6 11.23A3.15 3.15 0 0 0 41.4 696z"/><path id="w2lkb" d="M41.39 696c-.9 0-2-.63-2.45-1.4l-6.61-11.22a3.03 3.03 0 0 1 0-2.77l6.6-11.23A3.15 3.15 0 0 1 41.4 668h13.2c.9 0 2.01.62 2.46 1.38l6.6 11.23c.45.76.45 2.01 0 2.77l-6.6 11.23A3.15 3.15 0 0 1 54.6 696z"/><path id="w2lkd" d="M51.42 678.97c-.33-1.62-1.72-2.54-3.3-2.54-1.63 0-2.74.8-2.74 1.96 0 1.4 1.85 1.85 3.74 2.43 2.1.67 4.72 1.69 4.72 4.4 0 2.52-2.2 4.35-5.48 4.35-3.13 0-5.18-1.78-5.81-4.32h.01a1.13 1.13 0 0 1 2.18-.59l.03-.01c.27 1.51 1.55 2.86 3.67 2.86 1.87 0 2.96-.95 2.96-2.2 0-1.8-2.26-2.18-4.34-2.87-1.72-.58-4.05-1.4-4.05-3.93 0-2.26 2.2-4.07 5.22-4.07 2.73 0 4.87 1.6 5.42 3.93l-.1.02a1.13 1.13 0 0 1-2.02.55z"/><clipPath id="w2lkc"><use fill="#fff" xlink:href="#w2lka"/></clipPath></defs><g><g transform="translate(-28 -664)"><use fill="#e2574c" xlink:href="#w2lkb"/><use fill="#fff" fill-opacity="0" stroke="#fff" stroke-linecap="round" stroke-linejoin="round" stroke-miterlimit="50" stroke-width="4" clip-path="url(&quot;#w2lkc&quot;)" xlink:href="#w2lkb"/></g><g transform="translate(-28 -664)"><use fill="#fff" xlink:href="#w2lkd"/></g></g></svg>